<svg id="visual" viewBox="0 0 900 900" width="900" height="900" xmlns="http://www.w3.org/2000/svg" xmlns:xlink="http://www.w3.org/1999/xlink" version="1.1"><g stroke-width="1" stroke-linejoin="bevel"><path d="M462 409L419 343L388 414Z" fill="#246688" stroke="#246688"></path><path d="M417 546L529 473L462 409Z" fill="#277297" stroke="#277297"></path><path d="M462 409L533 290L419 343Z" fill="#00101c" stroke="#00101c"></path><path d="M605 358L533 290L462 409Z" fill="#1d4e6b" stroke="#1d4e6b"></path><path d="M265 295L290 453L388 414Z" fill="#297ea6" stroke="#297ea6"></path><path d="M388 414L417 546L462 409Z" fill="#081a28" stroke="#081a28"></path><path d="M346 537L417 546L388 414Z" fill="#081a28" stroke="#081a28"></path><path d="M290 453L346 537L388 414Z" fill="#19435d" stroke="#19435d"></path><path d="M293 204L265 295L419 343Z" fill="#1d4e6b" stroke="#1d4e6b"></path><path d="M419 343L265 295L388 414Z" fill="#15384f" stroke="#15384f"></path><path d="M557 627L594 454L529 473Z" fill="#205a7a" stroke="#205a7a"></path><path d="M529 473L605 358L462 409Z" fill="#19435d" stroke="#19435d"></path><path d="M594 454L605 358L529 473Z" fill="#1d4e6b" stroke="#1d4e6b"></path><path d="M533 290L378 181L419 343Z" fill="#277297" stroke="#277297"></path><path d="M664 345L625 291L605 358Z" fill="#205a7a" stroke="#205a7a"></path><path d="M605 358L625 291L533 290Z" fill="#15384f" stroke="#15384f"></path><path d="M533 290L506 161L378 181Z" fill="#246688" stroke="#246688"></path><path d="M378 181L293 204L419 343Z" fill="#081a28" stroke="#081a28"></path><path d="M197 583L347 611L346 537Z" fill="#297ea6" stroke="#297ea6"></path><path d="M346 537L347 611L417 546Z" fill="#205a7a" stroke="#205a7a"></path><path d="M417 546L557 627L529 473Z" fill="#19435d" stroke="#19435d"></path><path d="M634 188L506 161L533 290Z" fill="#1d4e6b" stroke="#1d4e6b"></path><path d="M162 349L208 499L290 453Z" fill="#246688" stroke="#246688"></path><path d="M290 453L208 499L346 537Z" fill="#297ea6" stroke="#297ea6"></path><path d="M684 401L664 345L605 358Z" fill="#19435d" stroke="#19435d"></path><path d="M293 204L200 272L265 295Z" fill="#19435d" stroke="#19435d"></path><path d="M265 295L162 349L290 453Z" fill="#246688" stroke="#246688"></path><path d="M198 712L358 639L347 611Z" fill="#19435d" stroke="#19435d"></path><path d="M347 611L358 639L417 546Z" fill="#1d4e6b" stroke="#1d4e6b"></path><path d="M720 515L684 401L594 454Z" fill="#246688" stroke="#246688"></path><path d="M594 454L684 401L605 358Z" fill="#1d4e6b" stroke="#1d4e6b"></path><path d="M378 181L323 145L293 204Z" fill="#205a7a" stroke="#205a7a"></path><path d="M293 204L158 189L200 272Z" fill="#081a28" stroke="#081a28"></path><path d="M383 64L323 145L378 181Z" fill="#246688" stroke="#246688"></path><path d="M200 272L162 349L265 295Z" fill="#0c2435" stroke="#0c2435"></path><path d="M551 633L557 627L417 546Z" fill="#1d4e6b" stroke="#1d4e6b"></path><path d="M493 696L551 633L417 546Z" fill="#081a28" stroke="#081a28"></path><path d="M625 291L634 188L533 290Z" fill="#19435d" stroke="#19435d"></path><path d="M730 155L634 188L749 166Z" fill="#1d4e6b" stroke="#1d4e6b"></path><path d="M634 188L625 291L749 166Z" fill="#277297" stroke="#277297"></path><path d="M208 499L197 583L346 537Z" fill="#1d4e6b" stroke="#1d4e6b"></path><path d="M52 485L197 583L208 499Z" fill="#297ea6" stroke="#297ea6"></path><path d="M78 330L122 408L162 349Z" fill="#297ea6" stroke="#297ea6"></path><path d="M162 349L122 408L208 499Z" fill="#297ea6" stroke="#297ea6"></path><path d="M570 104L454 77L506 161Z" fill="#112e42" stroke="#112e42"></path><path d="M506 161L454 77L378 181Z" fill="#0c2435" stroke="#0c2435"></path><path d="M363 709L493 696L358 639Z" fill="#0c2435" stroke="#0c2435"></path><path d="M358 639L493 696L417 546Z" fill="#19435d" stroke="#19435d"></path><path d="M715 551L594 454L557 627Z" fill="#112e42" stroke="#112e42"></path><path d="M634 188L570 104L506 161Z" fill="#246688" stroke="#246688"></path><path d="M715 551L720 515L594 454Z" fill="#19435d" stroke="#19435d"></path><path d="M749 166L625 291L664 345Z" fill="#00101c" stroke="#00101c"></path><path d="M715 551L749 650L770 598Z" fill="#15384f" stroke="#15384f"></path><path d="M454 77L383 64L378 181Z" fill="#112e42" stroke="#112e42"></path><path d="M323 145L158 189L293 204Z" fill="#15384f" stroke="#15384f"></path><path d="M312 749L363 709L358 639Z" fill="#297ea6" stroke="#297ea6"></path><path d="M127 163L158 189L153 51Z" fill="#246688" stroke="#246688"></path><path d="M200 272L78 330L162 349Z" fill="#246688" stroke="#246688"></path><path d="M592 753L557 627L551 633Z" fill="#081a28" stroke="#081a28"></path><path d="M158 189L78 330L200 272Z" fill="#0c2435" stroke="#0c2435"></path><path d="M122 408L52 485L208 499Z" fill="#0c2435" stroke="#0c2435"></path><path d="M153 51L158 189L323 145Z" fill="#246688" stroke="#246688"></path><path d="M158 189L0 232L78 330Z" fill="#205a7a" stroke="#205a7a"></path><path d="M198 712L312 749L358 639Z" fill="#00101c" stroke="#00101c"></path><path d="M363 709L384 786L493 696Z" fill="#112e42" stroke="#112e42"></path><path d="M0 404L52 485L122 408Z" fill="#277297" stroke="#277297"></path><path d="M197 583L198 712L347 611Z" fill="#081a28" stroke="#081a28"></path><path d="M749 166L664 345L820 302Z" fill="#19435d" stroke="#19435d"></path><path d="M634 188L721 111L570 104Z" fill="#277297" stroke="#277297"></path><path d="M69 642L139 655L197 583Z" fill="#081a28" stroke="#081a28"></path><path d="M820 302L664 345L832 351Z" fill="#1d4e6b" stroke="#1d4e6b"></path><path d="M454 77L346 0L383 64Z" fill="#1d4e6b" stroke="#1d4e6b"></path><path d="M383 64L294 0L323 145Z" fill="#277297" stroke="#277297"></path><path d="M536 0L346 0L454 77Z" fill="#277297" stroke="#277297"></path><path d="M536 0L454 77L570 104Z" fill="#277297" stroke="#277297"></path><path d="M139 655L198 712L197 583Z" fill="#246688" stroke="#246688"></path><path d="M312 749L384 786L363 709Z" fill="#00101c" stroke="#00101c"></path><path d="M493 696L592 753L551 633Z" fill="#112e42" stroke="#112e42"></path><path d="M302 804L384 786L312 749Z" fill="#1d4e6b" stroke="#1d4e6b"></path><path d="M497 830L592 753L493 696Z" fill="#19435d" stroke="#19435d"></path><path d="M721 111L634 188L730 155Z" fill="#246688" stroke="#246688"></path><path d="M593 0L536 0L570 104Z" fill="#277297" stroke="#277297"></path><path d="M832 351L684 401L720 515Z" fill="#277297" stroke="#277297"></path><path d="M832 351L664 345L684 401Z" fill="#277297" stroke="#277297"></path><path d="M749 650L715 551L557 627Z" fill="#15384f" stroke="#15384f"></path><path d="M715 551L827 549L720 515Z" fill="#246688" stroke="#246688"></path><path d="M677 0L721 111L787 78Z" fill="#15384f" stroke="#15384f"></path><path d="M749 166L721 111L730 155Z" fill="#1d4e6b" stroke="#1d4e6b"></path><path d="M346 0L294 0L383 64Z" fill="#205a7a" stroke="#205a7a"></path><path d="M827 549L832 351L720 515Z" fill="#081a28" stroke="#081a28"></path><path d="M592 753L749 650L557 627Z" fill="#112e42" stroke="#112e42"></path><path d="M677 0L593 0L570 104Z" fill="#15384f" stroke="#15384f"></path><path d="M78 330L0 404L122 408Z" fill="#297ea6" stroke="#297ea6"></path><path d="M52 485L69 642L197 583Z" fill="#00101c" stroke="#00101c"></path><path d="M0 297L0 404L78 330Z" fill="#0c2435" stroke="#0c2435"></path><path d="M233 0L153 51L323 145Z" fill="#246688" stroke="#246688"></path><path d="M0 232L0 297L78 330Z" fill="#19435d" stroke="#19435d"></path><path d="M294 0L233 0L323 145Z" fill="#0c2435" stroke="#0c2435"></path><path d="M0 232L158 189L127 163Z" fill="#19435d" stroke="#19435d"></path><path d="M153 51L119 79L127 163Z" fill="#246688" stroke="#246688"></path><path d="M176 768L302 804L312 749Z" fill="#1d4e6b" stroke="#1d4e6b"></path><path d="M384 786L497 830L493 696Z" fill="#297ea6" stroke="#297ea6"></path><path d="M900 641L827 549L770 598Z" fill="#246688" stroke="#246688"></path><path d="M770 598L827 549L715 551Z" fill="#1d4e6b" stroke="#1d4e6b"></path><path d="M139 655L176 768L198 712Z" fill="#297ea6" stroke="#297ea6"></path><path d="M198 712L176 768L312 749Z" fill="#15384f" stroke="#15384f"></path><path d="M0 581L69 642L52 485Z" fill="#19435d" stroke="#19435d"></path><path d="M0 404L0 519L52 485Z" fill="#19435d" stroke="#19435d"></path><path d="M412 900L497 830L384 786Z" fill="#1d4e6b" stroke="#1d4e6b"></path><path d="M592 753L748 718L749 650Z" fill="#112e42" stroke="#112e42"></path><path d="M0 53L0 232L127 163Z" fill="#205a7a" stroke="#205a7a"></path><path d="M50 770L176 768L139 655Z" fill="#0c2435" stroke="#0c2435"></path><path d="M787 78L721 111L749 166Z" fill="#00101c" stroke="#00101c"></path><path d="M721 111L677 0L570 104Z" fill="#1d4e6b" stroke="#1d4e6b"></path><path d="M751 777L748 718L592 753Z" fill="#1d4e6b" stroke="#1d4e6b"></path><path d="M749 650L900 641L770 598Z" fill="#15384f" stroke="#15384f"></path><path d="M0 519L0 581L52 485Z" fill="#19435d" stroke="#19435d"></path><path d="M69 642L50 770L139 655Z" fill="#00101c" stroke="#00101c"></path><path d="M497 830L548 838L592 753Z" fill="#15384f" stroke="#15384f"></path><path d="M478 900L548 838L497 830Z" fill="#19435d" stroke="#19435d"></path><path d="M832 351L900 325L820 302Z" fill="#081a28" stroke="#081a28"></path><path d="M900 146L787 78L749 166Z" fill="#205a7a" stroke="#205a7a"></path><path d="M900 510L900 375L832 351Z" fill="#1d4e6b" stroke="#1d4e6b"></path><path d="M900 228L749 166L820 302Z" fill="#205a7a" stroke="#205a7a"></path><path d="M900 375L900 325L832 351Z" fill="#112e42" stroke="#112e42"></path><path d="M900 641L900 510L827 549Z" fill="#19435d" stroke="#19435d"></path><path d="M827 549L900 510L832 351Z" fill="#0c2435" stroke="#0c2435"></path><path d="M153 51L108 0L119 79Z" fill="#205a7a" stroke="#205a7a"></path><path d="M119 79L0 53L127 163Z" fill="#00101c" stroke="#00101c"></path><path d="M233 0L108 0L153 51Z" fill="#246688" stroke="#246688"></path><path d="M900 325L900 228L820 302Z" fill="#246688" stroke="#246688"></path><path d="M666 900L751 777L592 753Z" fill="#246688" stroke="#246688"></path><path d="M900 697L900 641L749 650Z" fill="#081a28" stroke="#081a28"></path><path d="M347 900L384 786L302 804Z" fill="#15384f" stroke="#15384f"></path><path d="M347 900L412 900L384 786Z" fill="#205a7a" stroke="#205a7a"></path><path d="M548 838L598 900L592 753Z" fill="#19435d" stroke="#19435d"></path><path d="M412 900L478 900L497 830Z" fill="#1d4e6b" stroke="#1d4e6b"></path><path d="M249 900L347 900L302 804Z" fill="#00101c" stroke="#00101c"></path><path d="M900 228L900 146L749 166Z" fill="#277297" stroke="#277297"></path><path d="M787 78L823 0L677 0Z" fill="#15384f" stroke="#15384f"></path><path d="M0 749L50 770L69 642Z" fill="#297ea6" stroke="#297ea6"></path><path d="M176 768L249 900L302 804Z" fill="#1d4e6b" stroke="#1d4e6b"></path><path d="M108 0L0 53L119 79Z" fill="#297ea6" stroke="#297ea6"></path><path d="M900 697L749 650L748 718Z" fill="#00101c" stroke="#00101c"></path><path d="M111 900L249 900L176 768Z" fill="#0c2435" stroke="#0c2435"></path><path d="M478 900L598 900L548 838Z" fill="#00101c" stroke="#00101c"></path><path d="M900 0L823 0L787 78Z" fill="#0c2435" stroke="#0c2435"></path><path d="M0 581L0 749L69 642Z" fill="#277297" stroke="#277297"></path><path d="M50 770L111 900L176 768Z" fill="#15384f" stroke="#15384f"></path><path d="M598 900L666 900L592 753Z" fill="#1d4e6b" stroke="#1d4e6b"></path><path d="M751 777L900 697L748 718Z" fill="#19435d" stroke="#19435d"></path><path d="M900 804L900 697L751 777Z" fill="#112e42" stroke="#112e42"></path><path d="M0 749L0 774L50 770Z" fill="#00101c" stroke="#00101c"></path><path d="M108 0L0 0L0 53Z" fill="#081a28" stroke="#081a28"></path><path d="M666 900L787 849L751 777Z" fill="#15384f" stroke="#15384f"></path><path d="M0 900L111 900L50 770Z" fill="#112e42" stroke="#112e42"></path><path d="M900 146L900 0L787 78Z" fill="#297ea6" stroke="#297ea6"></path><path d="M666 900L780 900L787 849Z" fill="#0c2435" stroke="#0c2435"></path><path d="M787 849L900 804L751 777Z" fill="#205a7a" stroke="#205a7a"></path><path d="M900 900L900 804L787 849Z" fill="#1d4e6b" stroke="#1d4e6b"></path><path d="M0 774L0 900L50 770Z" fill="#15384f" stroke="#15384f"></path><path d="M780 900L900 900L787 849Z" fill="#1d4e6b" stroke="#1d4e6b"></path></g></svg>